<svg xmlns="http://www.w3.org/2000/svg" viewBox="0 0 116.26 116.26"><defs><style>.cls-1{fill:#fff;}</style></defs><g id="Capa_2" data-name="Capa 2"><g id="OBJECTS"><path class="cls-1" d="M58.13,0a58.13,58.13,0,1,0,58.13,58.13A58.2,58.2,0,0,0,58.13,0Zm0,112.45a54.32,54.32,0,1,1,54.32-54.32A54.38,54.38,0,0,1,58.13,112.45Z"/><path class="cls-1" d="M87.72,73.69,63.81,16.2a6.07,6.07,0,0,0-5.68-3.79h0a6.07,6.07,0,0,0-5.68,3.79L28.54,73.69a13.08,13.08,0,0,0-5.85,10.89v17.2q1.85,1.5,3.81,2.84v-20a9.27,9.27,0,0,1,4-7.59l.56-.33A9.22,9.22,0,0,1,43,78.79a10.26,10.26,0,0,1,.92,1.38,9.27,9.27,0,0,1,.56,1.19,3,3,0,0,1,.1.32l.15.52a6.75,6.75,0,0,1,.19.68,9.33,9.33,0,0,1,.17,1.7v28.23c1.25.3,2.52.56,3.81.77v-29a9.28,9.28,0,0,1,9.27-9.28,9.41,9.41,0,0,1,2,.23,2.29,2.29,0,0,1,.28.09A8.89,8.89,0,0,1,62,76.2l.16.09a9.17,9.17,0,0,1,1.62,1h0a9.73,9.73,0,0,1,1.47,1.47,8.65,8.65,0,0,1,.92,1.38,8.28,8.28,0,0,1,.56,1.2,1.7,1.7,0,0,1,.1.32l.16.52a6.55,6.55,0,0,1,.18.67,8.45,8.45,0,0,1,.17,1.7v29c1.29-.21,2.56-.47,3.81-.77V84.58a9.28,9.28,0,0,1,9.27-9.28,8.75,8.75,0,0,1,1.63.17l.49.1a9.17,9.17,0,0,1,1.16.36,7.75,7.75,0,0,1,.78.35,10.62,10.62,0,0,1,.94.51l.24.14a9.3,9.3,0,0,1,4,7.65v20c1.31-.89,2.58-1.85,3.81-2.84V84.58A13.08,13.08,0,0,0,87.72,73.69ZM80.48,71.5a12.89,12.89,0,0,0-2.34.23l-.55.11a13,13,0,0,0-2.17.68l-.12.06a13.49,13.49,0,0,0-1.87,1l-.45.3a13.53,13.53,0,0,0-1.7,1.41,1.37,1.37,0,0,0-.16.18A13.4,13.4,0,0,0,69.84,77l-.32.46c-.07.12-.16.23-.24.35v0a13.65,13.65,0,0,0-.89-1.26l-.1-.15c-.07-.09-.15-.16-.22-.24a13.33,13.33,0,0,0-1.45-1.46c-.22-.19-.43-.38-.66-.55s-.57-.42-.87-.61a13.07,13.07,0,0,0-1.56-.85l-.67-.28a13.47,13.47,0,0,0-2-.61c-.12,0-.25,0-.37-.06a12.74,12.74,0,0,0-2.39-.24,13.09,13.09,0,0,0-2.35.23l-.54.11a13,13,0,0,0-2.17.68l-.12,0a13.46,13.46,0,0,0-1.87,1l-.45.3a12.85,12.85,0,0,0-1.7,1.41,1.29,1.29,0,0,0-.16.17A12.87,12.87,0,0,0,47.48,77l-.31.44c-.07.13-.17.24-.24.36h0a11.33,11.33,0,0,0-.9-1.28,1.21,1.21,0,0,0-.1-.14c-.06-.08-.14-.15-.21-.23a11.84,11.84,0,0,0-1.45-1.47c-.22-.19-.44-.38-.67-.55s-.56-.42-.86-.61a13.2,13.2,0,0,0-1.57-.85l-.66-.28a13.23,13.23,0,0,0-2-.61c-.12,0-.24,0-.37-.06a12.24,12.24,0,0,0-4.67,0L50.91,29.82a31.78,31.78,0,0,0,7.22.85,31.78,31.78,0,0,0,7.22-.85L82.76,71.7A12.39,12.39,0,0,0,80.48,71.5Z"/></g></g></svg>